<svg xmlns="http://www.w3.org/2000/svg" width="266" height="86"><g fill-rule="nonzero" fill="none"><path d="M85.858 84.05A6.5 6.5 0 1 1 90.465 86a6.254 6.254 0 0 1-4.607-1.95Z" fill="#3273FA"/><path d="M182 31.34v-.36C182 16.328 174.503 9 159.509 9H139.49C124.497 9 117 16.327 117 30.98v33.024C117 78.668 124.497 86 139.491 86h19.973c14.994 0 22.491-7.332 22.491-21.996v-18.05h-30.033l-5.218 11.43h22.49v6.62c0 7.133-3.218 10.694-9.655 10.684H139.49c-6.447 0-9.67-3.561-9.67-10.684V30.996c0-7.113 3.223-10.67 9.67-10.67h19.973c6.437 0 9.656 3.557 9.656 10.67v5.977L182 31.339ZM266 31.34v-.36C266 16.328 258.505 9 243.514 9h-20.028C208.496 9 201 16.327 201 30.98v33.024C201 78.668 208.495 86 223.486 86h19.968c14.99 0 22.486-7.332 22.486-21.996v-18.05h-30.011l-5.217 11.43h22.486v6.62c0 7.133-3.223 10.694-9.67 10.684h-20.042c-6.436 0-9.654-3.561-9.654-10.684V30.996c0-7.113 3.218-10.67 9.654-10.67h19.968c6.446 0 9.669 3.557 9.669 10.67v5.977L266 31.339ZM50.817 8v59.773a38.075 38.075 0 0 1-18.772 5.076 38.016 38.016 0 0 1-18.832-5.076V8L0 13.789v61.168l2.99 2.004A52.566 52.566 0 0 0 32.014 86a52.566 52.566 0 0 0 28.996-9.04L64 75.017V13.79L50.817 8Z" fill="#FFF"/><path d="M31.463 0 25 2.99v43.068c2.11.621 4.296.938 6.493.942A23.217 23.217 0 0 0 38 46.058V2.99L31.463 0Z" fill="#3273FA"/></g></svg>